<svg width="21" height="20" viewBox="0 0 21 20" fill="none" xmlns="http://www.w3.org/2000/svg">
<path d="M8.83333 12.5L6.27062 15.0947C5.91315 15.4567 5.73442 15.6376 5.58079 15.6504C5.44751 15.6615 5.31701 15.6079 5.22996 15.5064C5.12963 15.3893 5.12963 15.135 5.12963 14.6263V13.3263C5.12963 12.87 4.75589 12.5397 4.30434 12.4736V12.4736C3.21145 12.3135 2.35315 11.4552 2.19306 10.3623C2.16667 10.1821 2.16667 9.96709 2.16667 9.53703V5.66666C2.16667 4.26653 2.16667 3.56646 2.43915 3.03168C2.67883 2.56128 3.06128 2.17882 3.53169 1.93914C4.06647 1.66666 4.76653 1.66666 6.16667 1.66666H12.3333C13.7335 1.66666 14.4335 1.66666 14.9683 1.93914C15.4387 2.17882 15.8212 2.56128 16.0608 3.03168C16.3333 3.56646 16.3333 4.26653 16.3333 5.66666V9.16666M16.3333 18.3333L14.5197 17.0724C14.2647 16.8951 14.1372 16.8065 13.9985 16.7437C13.8754 16.6879 13.7459 16.6473 13.613 16.6228C13.4632 16.5952 13.3079 16.5952 12.9974 16.5952H11.5C10.5666 16.5952 10.0999 16.5952 9.74335 16.4136C9.42975 16.2538 9.17478 15.9988 9.01499 15.6852C8.83333 15.3287 8.83333 14.862 8.83333 13.9286V11.8333C8.83333 10.8999 8.83333 10.4332 9.01499 10.0767C9.17478 9.76307 9.42975 9.5081 9.74335 9.34831C10.0999 9.16666 10.5666 9.16666 11.5 9.16666H16.1667C17.1001 9.16666 17.5668 9.16666 17.9233 9.34831C18.2369 9.5081 18.4919 9.76307 18.6517 10.0767C18.8333 10.4332 18.8333 10.8999 18.8333 11.8333V14.0952C18.8333 14.8718 18.8333 15.2601 18.7065 15.5664C18.5373 15.9747 18.2129 16.2992 17.8045 16.4684C17.4982 16.5952 17.1099 16.5952 16.3333 16.5952V18.3333Z" stroke="#585B5B" stroke-width="2" stroke-linecap="round" stroke-linejoin="round"/>
</svg>
