<svg width="21" height="20" viewBox="0 0 21 20" fill="none" xmlns="http://www.w3.org/2000/svg">
<path d="M17.4251 10.6913V7.92168C17.4251 7.55441 17.2792 7.20219 17.0195 6.94249C16.7598 6.68279 16.4076 6.53689 16.0403 6.53689H2.88479C2.51752 6.53689 2.16529 6.68279 1.9056 6.94249C1.6459 7.20219 1.5 7.55441 1.5 7.92168V17.6152C1.5 17.9825 1.6459 18.3347 1.9056 18.5944C2.16529 18.8541 2.51752 19 2.88479 19H16.0403C16.4076 19 16.7598 18.8541 17.0195 18.5944C17.2792 18.3347 17.4251 17.9825 17.4251 17.6152V14.1532M6.1252 3.07492L13.977 1.02543C14.0652 1.00057 14.1575 0.993845 14.2484 1.00566C14.3393 1.01748 14.4269 1.04759 14.5058 1.09418C14.5848 1.14077 14.6535 1.20287 14.7078 1.27673C14.762 1.3506 14.8008 1.4347 14.8217 1.52395L15.2094 3.07492" stroke="#585B5B" stroke-width="2" stroke-linecap="round" stroke-linejoin="round"/>
<path d="M18.8099 10.6913H15.3479C14.9655 10.6913 14.6555 11.0012 14.6555 11.3836V13.4608C14.6555 13.8432 14.9655 14.1532 15.3479 14.1532H18.8099C19.1923 14.1532 19.5023 13.8432 19.5023 13.4608V11.3836C19.5023 11.0012 19.1923 10.6913 18.8099 10.6913Z" stroke="#585B5B" stroke-width="2" stroke-linecap="round" stroke-linejoin="round"/>
</svg>
